<svg xmlns="http://www.w3.org/2000/svg" id="Capa_1" height="512" viewBox="0 0 512 512" width="512"><g><g id="Page-1_96_"><g id="_x30_97---Payment-Form"><path id="Shape_367_" d="m162.133 0c-14.139 0-25.6 11.462-25.6 25.6v119.467c0 14.138 11.462 25.6 25.6 25.6h187.733c14.138 0 25.6-11.462 25.6-25.6v-119.467c0-14.138-11.462-25.6-25.6-25.6zm187.734 153.6h-187.734c-4.713 0-8.533-3.821-8.533-8.533v-85.334h204.8v85.333c0 4.713-3.821 8.534-8.533 8.534zm8.533-128v17.067h-204.8v-17.067c0-4.713 3.821-8.533 8.533-8.533h187.733c4.713 0 8.534 3.82 8.534 8.533z"></path><path id="Path_339_" clip-rule="evenodd" d="m332.8 119.467h-34.133c-4.713 0-8.533 3.821-8.533 8.533 0 4.713 3.82 8.533 8.533 8.533h34.133c4.713 0 8.533-3.821 8.533-8.533 0-4.713-3.82-8.533-8.533-8.533z" fill-rule="evenodd"></path><path id="Path_338_" clip-rule="evenodd" d="m332.8 85.333h-68.267c-4.713 0-8.533 3.821-8.533 8.533 0 4.713 3.821 8.533 8.533 8.533h68.267c4.713 0 8.533-3.821 8.533-8.533s-3.82-8.533-8.533-8.533z" fill-rule="evenodd"></path><path id="Shape_366_" d="m213.333 85.333h-17.067c-14.138 0-25.6 11.462-25.6 25.6s11.462 25.6 25.6 25.6h17.067c14.138 0 25.6-11.462 25.6-25.6s-11.461-25.6-25.6-25.6zm0 34.134h-17.067c-4.713 0-8.533-3.821-8.533-8.533 0-4.713 3.821-8.533 8.533-8.533h17.067c4.713 0 8.533 3.821 8.533 8.533.001 4.712-3.82 8.533-8.533 8.533z"></path><path id="Shape_365_" d="m460.8 409.6h-136.533c-28.277 0-51.2 22.923-51.2 51.2s22.923 51.2 51.2 51.2h136.533c28.277 0 51.2-22.923 51.2-51.2s-22.923-51.2-51.2-51.2zm0 85.333h-136.533c-18.851 0-34.133-15.282-34.133-34.133s15.282-34.133 34.133-34.133h136.533c18.851 0 34.133 15.282 34.133 34.133s-15.282 34.133-34.133 34.133z"></path><path id="Shape_364_" d="m486.4 298.667h-102.4c-14.138 0-25.6 11.462-25.6 25.6v34.133c0 14.138 11.462 25.6 25.6 25.6h102.4c14.138 0 25.6-11.462 25.6-25.6v-34.133c0-14.139-11.461-25.6-25.6-25.6zm8.533 59.733c0 4.713-3.82 8.533-8.533 8.533h-102.4c-4.713 0-8.533-3.82-8.533-8.533v-34.133c0-4.713 3.821-8.533 8.533-8.533h102.4c4.713 0 8.533 3.821 8.533 8.533z"></path><path id="Shape_363_" d="m486.4 196.267h-102.4c-14.138 0-25.6 11.462-25.6 25.6v34.133c0 14.139 11.462 25.6 25.6 25.6h102.4c14.138 0 25.6-11.461 25.6-25.6v-34.133c0-14.139-11.461-25.6-25.6-25.6zm-110.933 59.733v-34.133c0-4.713 3.821-8.533 8.533-8.533h42.667v51.2h-42.667c-4.713-.001-8.533-3.821-8.533-8.534zm119.466 0c0 4.713-3.82 8.533-8.533 8.533h-42.667v-51.2h42.667c4.713 0 8.533 3.821 8.533 8.533z"></path><path id="Shape_362_" d="m341.333 358.4v-34.133c0-14.138-11.462-25.6-25.6-25.6h-290.133c-14.138 0-25.6 11.462-25.6 25.6v34.133c0 14.138 11.462 25.6 25.6 25.6h290.133c14.139 0 25.6-11.462 25.6-25.6zm-324.266 0v-34.133c0-4.713 3.821-8.533 8.533-8.533h290.133c4.713 0 8.533 3.821 8.533 8.533v34.133c0 4.713-3.821 8.533-8.533 8.533h-290.133c-4.713 0-8.533-3.82-8.533-8.533z"></path><path id="Shape_361_" d="m0 221.867v34.133c0 14.139 11.462 25.6 25.6 25.6h290.133c14.138 0 25.6-11.461 25.6-25.6v-34.133c0-14.139-11.462-25.6-25.6-25.6h-290.133c-14.138 0-25.6 11.461-25.6 25.6zm324.267 0v34.133c0 4.713-3.821 8.533-8.533 8.533h-290.134c-4.713 0-8.533-3.821-8.533-8.533v-34.133c0-4.713 3.821-8.533 8.533-8.533h290.133c4.713-.001 8.534 3.82 8.534 8.533z"></path><g clip-rule="evenodd" fill-rule="evenodd"><path id="Path_337_" d="m99.9 53.7c-3.332-3.331-8.734-3.331-12.066 0l-25.6 25.6c-3.331 3.332-3.331 8.734 0 12.066l25.6 25.6c3.348 3.234 8.671 3.188 11.962-.104s3.338-8.614.104-11.962l-19.567-19.567 19.567-19.567c3.331-3.332 3.331-8.733 0-12.066z"></path><path id="Path_336_" d="m412.1 116.966c3.332 3.331 8.734 3.331 12.066 0l25.6-25.6c3.331-3.332 3.331-8.734 0-12.066l-25.6-25.6c-3.348-3.234-8.671-3.188-11.962.104-3.292 3.292-3.338 8.614-.104 11.962l19.567 19.567-19.567 19.567c-3.331 3.333-3.331 8.734 0 12.066z"></path></g></g></g></g></svg>