<svg xmlns="http://www.w3.org/2000/svg" id="Capa_1" height="512" viewBox="0 0 511.996 511.996" width="512"><g><g id="Page-1_8_"><g id="_x30_09---Image-Gallery"><path id="Shape_31_" d="m85.332 341.332h341.333c14.138 0 25.6-11.462 25.6-25.6v-256c0-14.138-11.462-25.6-25.6-25.6h-341.333c-14.138 0-25.6 11.462-25.6 25.6v256c0 14.138 11.461 25.6 25.6 25.6zm341.333-17.067h-337.792l107.392-107.375 17.801 17.775-32.367 32.367c-2.218 2.142-3.108 5.315-2.327 8.299s3.111 5.314 6.094 6.094c2.983.781 6.156-.109 8.299-2.327l79.3-79.3 17.801 17.801-32.367 32.367c-3.234 3.348-3.188 8.671.104 11.962 3.292 3.292 8.614 3.338 11.962.104l79.3-79.3 85.333 85.333v47.667c0 4.712-3.82 8.533-8.533 8.533zm-341.333-273.067h341.333c4.713 0 8.533 3.821 8.533 8.533v184.201l-73.267-73.267c-6.665-6.663-17.468-6.663-24.132 0l-34.867 34.867-17.801-17.801c-6.665-6.663-17.468-6.663-24.132 0l-34.867 34.867-17.766-17.801c-6.777-6.444-17.415-6.444-24.192 0l-107.376 107.402v-252.467c0-4.713 3.821-8.534 8.534-8.534z"></path><path id="Shape_30_" d="m110.932 136.532h9.745c.792 3.055 2.013 5.983 3.627 8.695l-6.903 6.912c-2.218 2.142-3.108 5.315-2.327 8.299s3.111 5.313 6.094 6.094c2.984.781 6.156-.109 8.299-2.327l6.903-6.912c2.713 1.614 5.64 2.835 8.695 3.627v9.745c0 4.713 3.821 8.533 8.533 8.533 4.713 0 8.533-3.82 8.533-8.533v-9.745c3.055-.792 5.983-2.013 8.695-3.627l6.903 6.912c2.143 2.218 5.315 3.108 8.299 2.327s5.313-3.111 6.094-6.094c.781-2.984-.109-6.156-2.327-8.299l-6.903-6.912c1.614-2.713 2.835-5.64 3.627-8.695h9.745c4.713 0 8.533-3.821 8.533-8.533s-3.821-8.533-8.533-8.533h-9.745c-.792-3.055-2.013-5.983-3.627-8.695l6.903-6.912c2.218-2.142 3.108-5.315 2.327-8.299s-3.111-5.313-6.094-6.094-6.156.109-8.299 2.327l-6.903 6.912c-2.713-1.614-5.64-2.835-8.695-3.627v-9.745c0-4.713-3.821-8.533-8.533-8.533-4.713 0-8.533 3.821-8.533 8.533v9.745c-3.055.792-5.983 2.013-8.695 3.627l-6.903-6.912c-2.143-2.218-5.315-3.108-8.299-2.327-2.983.781-5.313 3.111-6.094 6.094s.109 6.156 2.327 8.299l6.903 6.912c-1.614 2.713-2.835 5.64-3.627 8.695h-9.745c-4.713 0-8.533 3.821-8.533 8.533s3.82 8.533 8.533 8.533zm42.666-25.6c9.426 0 17.067 7.641 17.067 17.067s-7.641 17.067-17.067 17.067-17.067-7.641-17.067-17.067 7.642-17.067 17.067-17.067z"></path><path id="Path_46_" clip-rule="evenodd" d="m28.098 219.365c2.143 2.218 5.315 3.108 8.299 2.327s5.313-3.111 6.094-6.094-.109-6.156-2.327-8.299l-19.567-19.567 19.567-19.567c3.234-3.348 3.188-8.671-.104-11.962-3.292-3.292-8.614-3.338-11.962-.104l-25.6 25.6c-3.331 3.332-3.331 8.734 0 12.066z" fill-rule="evenodd"></path><path id="Path_45_" clip-rule="evenodd" d="m483.898 156.098c-3.348-3.234-8.671-3.188-11.962.104-3.292 3.292-3.338 8.614-.104 11.962l19.567 19.567-19.567 19.567c-2.218 2.143-3.108 5.315-2.327 8.299s3.111 5.313 6.094 6.094 6.156-.109 8.299-2.327l25.6-25.6c3.331-3.332 3.331-8.734 0-12.066z" fill-rule="evenodd"></path><path id="Shape_29_" d="m76.798 477.865h68.267c14.138 0 25.6-11.462 25.6-25.6v-68.267c0-14.138-11.462-25.6-25.6-25.6h-68.267c-14.138 0-25.6 11.462-25.6 25.6v68.267c0 14.138 11.462 25.6 25.6 25.6zm-8.533-93.867c0-4.713 3.821-8.533 8.533-8.533h68.267c4.713 0 8.533 3.82 8.533 8.533v68.267c0 4.713-3.821 8.533-8.533 8.533h-68.267c-4.713 0-8.533-3.82-8.533-8.533z"></path><path id="Shape_28_" d="m366.932 358.398c-14.138 0-25.6 11.462-25.6 25.6v68.267c0 14.138 11.462 25.6 25.6 25.6h68.267c14.138 0 25.6-11.462 25.6-25.6v-68.267c0-14.138-11.462-25.6-25.6-25.6zm76.8 25.6v68.267c0 4.713-3.82 8.533-8.533 8.533h-68.267c-4.713 0-8.533-3.82-8.533-8.533v-68.267c0-4.713 3.821-8.533 8.533-8.533h68.267c4.712 0 8.533 3.82 8.533 8.533z"></path><path id="Shape_27_" d="m221.865 358.398c-14.138 0-25.6 11.462-25.6 25.6v68.267c0 14.138 11.462 25.6 25.6 25.6h68.267c14.138 0 25.6-11.462 25.6-25.6v-68.267c0-14.138-11.462-25.6-25.6-25.6zm76.8 25.6v68.267c0 4.713-3.82 8.533-8.533 8.533h-68.267c-4.713 0-8.533-3.82-8.533-8.533v-68.267c0-4.713 3.82-8.533 8.533-8.533h68.267c4.712 0 8.533 3.82 8.533 8.533z"></path></g></g></g></svg>