<?xml version="1.0" encoding="utf-8"?>
<!-- Generator: Adobe Illustrator 15.0.0, SVG Export Plug-In . SVG Version: 6.00 Build 0)  -->
<!DOCTYPE svg PUBLIC "-//W3C//DTD SVG 1.1//EN" "http://www.w3.org/Graphics/SVG/1.1/DTD/svg11.dtd">
<svg version="1.1" id="Layer_1" xmlns="http://www.w3.org/2000/svg" xmlns:xlink="http://www.w3.org/1999/xlink" x="0px" y="0px"
	 width="20px" height="16px" viewBox="0 0 20 16" enable-background="new 0 0 20 16" xml:space="preserve">
<g>
	<path fill-rule="evenodd" clip-rule="evenodd" fill="#ACD037" d="M7.855,0.792c0.235,0,0.47,0,0.705,0
		c0.518,0.037,1.051,0.139,1.47,0.225c1.382,0.423,2.544,1.074,3.435,2.055c0.875,0.964,1.563,2.157,1.814,3.66
		c0.145,0.854,0.164,1.687-0.06,2.385c-0.413,1.289-1.517,2.297-3.03,2.461c-0.8,0.086-1.586-0.094-2.189-0.465
		c0.989-0.629,1.806-1.621,1.8-3.121c-0.005-1.471-0.854-2.569-1.815-3.12c-0.633-0.369-1.388-0.54-2.205-0.45
		c-1.513,0.166-2.605,1.176-3.015,2.46C4.549,7.558,4.562,8.438,4.72,9.299c0.287,1.555,0.957,2.688,1.83,3.643
		c0.737,0.809,1.769,1.479,2.91,1.877c0.162,0.057,0.379,0.09,0.525,0.164c-1.116,0.301-2.496,0.262-3.585-0.016
		c-1.069-0.27-1.906-0.736-2.67-1.334C2.221,12.453,1.194,10.73,1,8.353c0-0.24,0-0.48,0-0.72c0.123-2.004,1.028-3.653,2.115-4.74
		C4.259,1.749,5.814,0.949,7.855,0.792z"/>
	<path fill-rule="evenodd" clip-rule="evenodd" fill="#379446" d="M11.575,0.792c0.154,0,0.31,0,0.465,0
		c2.079,0.09,3.758,1.028,4.859,2.13c1.165,1.166,1.969,2.753,2.101,4.86c0,0.09,0,0.18,0,0.27c-0.034,0.031-0.005,0.125-0.015,0.18
		c0,0.005,0,0.01,0,0.015c-0.093,2.1-0.944,3.665-2.056,4.815c-1.117,1.158-2.679,1.963-4.74,2.145c-0.26,0-0.52,0-0.779,0
		c-0.506-0.045-0.983-0.117-1.425-0.225c-0.146-0.074-0.363-0.107-0.525-0.164c-1.141-0.398-2.172-1.068-2.91-1.877
		c-0.874-0.955-1.543-2.088-1.83-3.643C4.562,8.438,4.549,7.558,4.765,6.882c0.41-1.284,1.502-2.294,3.015-2.46
		c0.817-0.09,1.572,0.082,2.205,0.45C9.041,5.495,8.2,6.472,8.2,8.022c0,1.483,0.793,2.479,1.8,3.091
		c0.604,0.371,1.39,0.551,2.189,0.465c1.514-0.164,2.617-1.172,3.03-2.461c0.224-0.698,0.204-1.531,0.06-2.385
		c-0.252-1.503-0.939-2.696-1.814-3.66c-0.891-0.98-2.053-1.631-3.435-2.055C10.501,0.898,11.023,0.832,11.575,0.792z"/>
	<path fill-rule="evenodd" clip-rule="evenodd" fill="#ACD037" d="M18.985,8.232c0.01-0.055-0.02-0.149,0.015-0.18
		c0,0.06,0,0.12,0,0.18C18.996,8.232,18.99,8.232,18.985,8.232z"/>
	<path fill="#A7C339" d="M9.985,14.982c-0.146-0.074-0.363-0.107-0.525-0.164c-1.141-0.398-2.172-1.068-2.91-1.877
		c-0.874-0.955-1.543-2.088-1.83-3.643c-0.035-0.191-0.063-0.381-0.083-0.57c-0.006,0.64,0.128,1.582,0.463,2.689
		c0.651,2.158,2.049,3.627,2.126,3.705C8.136,15.242,9.137,15.211,9.985,14.982z"/>
	<path fill="#2D793C" d="M7.11,5.438c1.35-0.35,2.05,0.08,2.05,0.08l0.042-0.003c0.24-0.248,0.507-0.46,0.783-0.642
		c-0.633-0.369-1.388-0.54-2.205-0.45c-1.513,0.166-2.605,1.176-3.015,2.46c-0.099,0.311-0.15,0.666-0.16,1.042
		C4.908,6.957,5.766,5.786,7.11,5.438z"/>
</g>
</svg>
